<svg viewBox="0 0 591.25 246.47" version="1.1" xmlns="http://www.w3.org/2000/svg" id="Layer_1">
  
  <defs>
    <style>
      .st0 {
        fill: #231f20;
      }
    </style>
  </defs>
  <g>
    <path d="M120.81,120.79l-11.32-45.47h-.19l-11.13,45.47h-14.87l-17.68-66.79h14.69l10.57,45.47h.19l11.6-45.47h13.75l11.41,46.03h.19l10.95-46.03h14.41l-17.96,66.79h-14.61Z" class="st0"></path>
    <path d="M174.78,54v25.63h27.04v-25.63h14.69v66.79h-14.69v-28.81h-27.04v28.81h-14.69V54h14.69Z" class="st0"></path>
    <path d="M244.1,54v66.79h-14.69V54h14.69Z" class="st0"></path>
    <path d="M251.77,66.35v-12.35h54.73v12.35h-20.02v54.45h-14.69v-54.45h-20.02Z" class="st0"></path>
    <path d="M364.13,54v12.35h-35.27v14.31h32.37v11.41h-32.37v16.37h36.02v12.35h-50.7V54h49.96,0Z" class="st0"></path>
  </g>
  <g>
    <path d="M481.45,180.68c.87,1.4,1.96,2.63,3.27,3.7,1.31,1.06,2.79,1.89,4.44,2.48s3.38.89,5.19.89c3.31,0,6.11-.64,8.42-1.92,2.31-1.28,4.18-2.99,5.61-5.15,1.44-2.15,2.48-4.6,3.13-7.34.66-2.75.98-5.58.98-8.51s-.33-5.54-.98-8.19c-.66-2.65-1.7-5.04-3.13-7.16s-3.3-3.82-5.61-5.1-5.11-1.92-8.42-1.92c-4.49,0-8,1.37-10.52,4.12-2.53,2.74-4.07,6.36-4.63,10.85h-14.22c.37-4.18,1.34-7.95,2.9-11.32s3.62-6.24,6.17-8.61c2.56-2.37,5.55-4.18,8.98-5.43,3.43-1.25,7.2-1.87,11.32-1.87,5.11,0,9.71.89,13.8,2.67s7.53,4.22,10.34,7.34,4.96,6.78,6.46,10.99,2.25,8.75,2.25,13.61-.75,9.62-2.25,13.89c-1.5,4.27-3.65,8-6.46,11.18s-6.25,5.67-10.34,7.48c-4.08,1.81-8.68,2.71-13.8,2.71-3.68,0-7.16-.53-10.43-1.59s-6.21-2.6-8.79-4.63c-2.59-2.03-4.72-4.54-6.41-7.53-1.68-2.99-2.74-6.42-3.18-10.29h14.22c.25,1.68.81,3.23,1.68,4.63v.02Z" class="st0"></path>
    <path d="M455.63,178.72c-1.5,4.27-3.65,8-6.46,11.18s-6.25,5.67-10.34,7.48c-4.08,1.81-8.68,2.71-13.8,2.71s-9.79-.9-13.85-2.71c-4.05-1.81-7.48-4.3-10.29-7.48s-4.96-6.91-6.46-11.18-2.25-8.9-2.25-13.89.75-9.4,2.25-13.61,3.65-7.87,6.46-10.99,6.24-5.57,10.29-7.34c4.05-1.78,8.67-2.67,13.85-2.67s9.71.89,13.8,2.67,7.53,4.22,10.34,7.34,4.96,6.78,6.46,10.99,2.25,8.75,2.25,13.61-.75,9.62-2.25,13.89ZM442.21,156.64c-.66-2.65-1.7-5.04-3.13-7.16s-3.3-3.82-5.61-5.1-5.11-1.92-8.42-1.92-6.11.64-8.42,1.92c-2.31,1.28-4.18,2.98-5.61,5.1s-2.48,4.5-3.13,7.16c-.65,2.65-.98,5.38-.98,8.19s.33,5.77.98,8.51c.66,2.74,1.7,5.19,3.13,7.34,1.44,2.15,3.31,3.87,5.61,5.15,2.31,1.28,5.11,1.92,8.42,1.92s6.11-.64,8.42-1.92c2.31-1.28,4.18-2.99,5.61-5.15,1.44-2.15,2.48-4.6,3.13-7.34.66-2.75.98-5.58.98-8.51s-.33-5.54-.98-8.19Z" class="st0"></path>
    <path d="M335.24,198.5v-12.35h32.27v-15.44h-27.97v-11.41h27.97v-27.6h14.69v66.79h-46.96Z" class="st0"></path>
    <path d="M279.76,198.5v-12.35h32.27v-15.44h-27.97v-11.41h27.97v-27.6h14.69v66.79h-46.96Z" class="st0"></path>
    <path d="M221.29,198.5v-12.35h35.27v-14.31h-32.37v-11.41h32.37v-16.37h-36.02v-12.35h50.7v66.79h-49.96,0Z" class="st0"></path>
    <path d="M160.67,198.5v-12.35h35.27v-14.31h-32.37v-11.41h32.37v-16.37h-36.02v-12.35h50.7v66.79h-49.96,0Z" class="st0"></path>
  </g>
</svg>