<svg viewBox="0 0 595.28 841.89" version="1.1" xmlns="http://www.w3.org/2000/svg" id="Layer_1">
  
  <defs>
    <style>
      .st0 {
        fill: #231f20;
      }
    </style>
  </defs>
  <path d="M237.2,507.43l-29.31-117.73h-.48l-28.83,117.73h-38.52l-45.78-172.97h38.03l27.37,117.73h.49l30.04-117.73h35.61l29.55,119.19h.48l28.34-119.19h37.31l-46.51,172.97h-37.79Z" class="st0"></path>
  <path d="M382.54,461.16c2.26,3.63,5.09,6.82,8.48,9.57,3.39,2.74,7.23,4.88,11.51,6.42,4.28,1.54,8.76,2.3,13.45,2.3,8.56,0,15.83-1.66,21.8-4.96,5.98-3.31,10.82-7.75,14.54-13.32,3.72-5.57,6.42-11.91,8.12-19.02,1.7-7.11,2.54-14.45,2.54-22.04s-.85-14.34-2.54-21.2c-1.7-6.87-4.4-13.04-8.12-18.53-3.71-5.49-8.56-9.9-14.54-13.2-5.97-3.31-13.24-4.97-21.8-4.97-11.63,0-20.71,3.55-27.25,10.66-6.54,7.11-10.54,16.47-11.99,28.1h-36.82c.97-10.82,3.47-20.59,7.51-29.31,4.04-8.72,9.37-16.15,15.99-22.29,6.62-6.14,14.38-10.82,23.26-14.05,8.88-3.23,18.66-4.85,29.31-4.85,13.24,0,25.15,2.3,35.73,6.9,10.58,4.6,19.5,10.94,26.77,19.02,7.27,8.07,12.84,17.56,16.72,28.46,3.87,10.9,5.81,22.65,5.81,35.25s-1.94,24.91-5.81,35.97c-3.88,11.06-9.45,20.71-16.72,28.95s-16.19,14.69-26.77,19.38c-10.58,4.68-22.49,7.03-35.73,7.03-9.53,0-18.53-1.37-27.01-4.12-8.48-2.75-16.07-6.74-22.77-11.99-6.7-5.25-12.23-11.75-16.59-19.5-4.36-7.75-7.11-16.64-8.24-26.65h36.82c.65,4.36,2.1,8.36,4.36,11.99Z" class="st0"></path>
</svg>